<svg xmlns="http://www.w3.org/2000/svg" xmlns:xlink="http://www.w3.org/1999/xlink" width="40" zoomAndPan="magnify" viewBox="0 0 30 30.000001" height="40" preserveAspectRatio="xMidYMid meet" version="1.0"><defs><g/><clipPath id="bda24e3b2c"><path d="M 0.484375 0 L 29.515625 0 L 29.515625 29.03125 L 0.484375 29.03125 Z M 0.484375 0 " clip-rule="nonzero"/></clipPath></defs><g clip-path="url(#bda24e3b2c)"><path fill="#ffffff" d="M 0.484375 0 L 29.515625 0 L 29.515625 36.289062 L 0.484375 36.289062 Z M 0.484375 0 " fill-opacity="1" fill-rule="nonzero"/><path fill="#ffffff" d="M 0.484375 0 L 29.515625 0 L 29.515625 29.03125 L 0.484375 29.03125 Z M 0.484375 0 " fill-opacity="1" fill-rule="nonzero"/><path fill="#ffffff" d="M 0.484375 0 L 29.515625 0 L 29.515625 29.03125 L 0.484375 29.03125 Z M 0.484375 0 " fill-opacity="1" fill-rule="nonzero"/></g><g fill="#000000" fill-opacity="1"><g transform="translate(12.571571, 17.322585)"><g><path d="M 6.671875 -4.046875 C 6.710938 -4.054688 6.757812 -4.054688 6.8125 -4.046875 C 6.863281 -4.035156 6.898438 -4.015625 6.921875 -3.984375 C 6.953125 -3.929688 6.953125 -3.875 6.921875 -3.8125 C 6.890625 -3.757812 6.84375 -3.71875 6.78125 -3.6875 C 6.320312 -3.46875 5.863281 -3.238281 5.40625 -3 C 4.863281 -2.71875 4.320312 -2.441406 3.78125 -2.171875 C 3.695312 -2.140625 3.617188 -2.101562 3.546875 -2.0625 C 3.421875 -1.988281 3.300781 -1.925781 3.1875 -1.875 C 2.90625 -1.738281 2.71875 -1.523438 2.625 -1.234375 C 2.382812 -0.554688 2.132812 0.117188 1.875 0.796875 C 1.53125 1.703125 1.097656 2.5625 0.578125 3.375 C 0.296875 3.84375 -0.0507812 4.257812 -0.46875 4.625 C -0.945312 5.082031 -1.503906 5.375 -2.140625 5.5 C -3.179688 5.707031 -4.1875 5.640625 -5.15625 5.296875 C -5.550781 5.148438 -5.894531 4.921875 -6.1875 4.609375 C -6.570312 4.191406 -6.585938 3.742188 -6.234375 3.265625 C -6.078125 3.066406 -5.90625 2.878906 -5.71875 2.703125 C -5.289062 2.304688 -4.828125 1.957031 -4.328125 1.65625 C -2.535156 0.507812 -0.695312 -0.539062 1.1875 -1.5 C 1.195312 -1.5 1.203125 -1.5 1.203125 -1.5 C 1.398438 -1.601562 1.59375 -1.710938 1.78125 -1.828125 C 1.8125 -1.847656 1.851562 -1.898438 1.90625 -1.984375 C 1.96875 -2.066406 2.007812 -2.148438 2.03125 -2.234375 C 2.0625 -2.316406 2.054688 -2.375 2.015625 -2.40625 C 1.972656 -2.445312 1.867188 -2.429688 1.703125 -2.359375 C 1.640625 -2.335938 1.578125 -2.3125 1.515625 -2.28125 C 1.367188 -2.207031 1.222656 -2.144531 1.078125 -2.09375 C 0.210938 -1.882812 -0.21875 -2.210938 -0.21875 -3.078125 C -0.195312 -3.609375 -0.0390625 -4.082031 0.25 -4.5 C 0.550781 -4.925781 0.929688 -5.257812 1.390625 -5.5 C 1.847656 -5.738281 2.34375 -5.828125 2.875 -5.765625 C 2.9375 -5.765625 2.992188 -5.757812 3.046875 -5.75 C 3.191406 -5.726562 3.335938 -5.71875 3.484375 -5.71875 C 3.640625 -5.71875 3.796875 -5.75 3.953125 -5.8125 C 4.117188 -5.875 4.242188 -5.851562 4.328125 -5.75 C 4.410156 -5.65625 4.421875 -5.523438 4.359375 -5.359375 C 4.210938 -5.046875 4.070312 -4.726562 3.9375 -4.40625 C 3.832031 -4.207031 3.734375 -4 3.640625 -3.78125 C 3.546875 -3.5625 3.445312 -3.335938 3.34375 -3.109375 C 3.207031 -2.804688 3.1875 -2.644531 3.28125 -2.625 C 3.382812 -2.613281 3.550781 -2.671875 3.78125 -2.796875 C 3.8125 -2.804688 3.84375 -2.8125 3.875 -2.8125 C 4.300781 -3.019531 4.726562 -3.222656 5.15625 -3.421875 C 5.457031 -3.554688 5.757812 -3.691406 6.0625 -3.828125 C 6.257812 -3.921875 6.460938 -3.992188 6.671875 -4.046875 Z M 1.296875 0 C 1.453125 -0.4375 1.519531 -0.722656 1.5 -0.859375 C 1.476562 -1.003906 1.378906 -1.039062 1.203125 -0.96875 C 1.035156 -0.90625 0.8125 -0.785156 0.53125 -0.609375 C 0.351562 -0.503906 0.160156 -0.394531 -0.046875 -0.28125 C -1.316406 0.40625 -2.554688 1.144531 -3.765625 1.9375 C -4.304688 2.25 -4.785156 2.625 -5.203125 3.0625 C -5.640625 3.539062 -5.625 3.960938 -5.15625 4.328125 C -4.875 4.554688 -4.5625 4.710938 -4.21875 4.796875 C -3.882812 4.878906 -3.515625 4.921875 -3.109375 4.921875 C -2.628906 4.960938 -2.1875 4.875 -1.78125 4.65625 C -1.375 4.445312 -0.992188 4.132812 -0.640625 3.71875 C -0.429688 3.4375 -0.234375 3.144531 -0.046875 2.84375 C 0.503906 1.9375 0.953125 0.988281 1.296875 0 Z M 0.796875 -2.671875 C 0.929688 -2.609375 1.125 -2.65625 1.375 -2.8125 C 1.625 -2.96875 1.878906 -3.175781 2.140625 -3.4375 C 2.398438 -3.695312 2.609375 -3.96875 2.765625 -4.25 C 2.921875 -4.53125 2.957031 -4.765625 2.875 -4.953125 C 2.851562 -5.003906 2.820312 -5.054688 2.78125 -5.109375 C 2.695312 -5.203125 2.601562 -5.242188 2.5 -5.234375 C 2.40625 -5.234375 2.304688 -5.21875 2.203125 -5.1875 C 1.828125 -5.039062 1.5 -4.789062 1.21875 -4.4375 C 0.9375 -4.082031 0.75 -3.726562 0.65625 -3.375 C 0.5625 -3.03125 0.609375 -2.796875 0.796875 -2.671875 Z M 0.796875 -2.671875 "/></g></g></g><g fill="#000000" fill-opacity="1"><g transform="translate(19.026648, 17.322585)"><g><path d="M 3.65625 -3.609375 C 3.820312 -3.773438 3.957031 -3.867188 4.0625 -3.890625 C 4.175781 -3.910156 4.25 -3.890625 4.28125 -3.828125 C 4.320312 -3.773438 4.300781 -3.703125 4.21875 -3.609375 C 3.78125 -3.078125 3.285156 -2.613281 2.734375 -2.21875 C 2.179688 -1.832031 1.613281 -1.609375 1.03125 -1.546875 C 0.457031 -1.484375 0.109375 -1.800781 -0.015625 -2.5 C -0.109375 -3.1875 0.304688 -4.59375 1.234375 -6.71875 C 2.160156 -8.84375 2.894531 -10.582031 3.4375 -11.9375 C 3.488281 -12.0625 3.554688 -12.164062 3.640625 -12.25 C 3.765625 -12.375 3.910156 -12.40625 4.078125 -12.34375 C 4.128906 -12.3125 4.179688 -12.269531 4.234375 -12.21875 C 4.296875 -12.164062 4.316406 -12.066406 4.296875 -11.921875 C 1.910156 -6.265625 0.753906 -3.1875 0.828125 -2.6875 C 0.898438 -2.195312 1.21875 -2.078125 1.78125 -2.328125 C 2.34375 -2.578125 2.773438 -2.832031 3.078125 -3.09375 C 3.390625 -3.351562 3.582031 -3.523438 3.65625 -3.609375 Z M 3.65625 -3.609375 "/></g></g></g></svg>
